<?xml version="1.0" encoding="utf-8"?>
<!-- https://thenounproject.com/term/add/21727/ -->
<svg version="1.1" id="Layer_1" xmlns="http://www.w3.org/2000/svg" xmlns:xlink="http://www.w3.org/1999/xlink" x="0px" y="0px"
	 viewBox="0 0 100 100" style="enable-background:new 0 0 100 100;" xml:space="preserve">
<path class="st0" d="M50,11.6c-21.2,0-38.4,17.2-38.4,38.4S28.8,88.4,50,88.4S88.4,71.2,88.4,50S71.2,11.6,50,11.6z M50,97.1
	C24,97.1,2.9,76,2.9,50S24,2.9,50,2.9S97.1,24,97.1,50S76,97.1,50,97.1z"/>
<path class="st0" d="M73.2,45.2H54.8V26.8c0-2.7-2.2-4.8-4.8-4.8s-4.8,2.2-4.8,4.8v18.4H26.8c-2.7,0-4.8,2.2-4.8,4.8
	s2.2,4.8,4.8,4.8h18.4v18.4c0,2.7,2.2,4.8,4.8,4.8s4.8-2.2,4.8-4.8V54.8h18.4c2.7,0,4.8-2.2,4.8-4.8S75.9,45.2,73.2,45.2z"/>
</svg>
