<?xml version="1.0" encoding="utf-8"?>
<!-- https://thenounproject.com/term/menu/105216/ -->
<svg version="1.1" id="Layer_1" xmlns="http://www.w3.org/2000/svg" xmlns:xlink="http://www.w3.org/1999/xlink" x="0px" y="0px"
	 viewBox="0 0 100 100" style="enable-background:new 0 0 100 100;" xml:space="preserve">
<path class="st0" d="M8.1,52.4h83.8c1.3,0,2.4-1.1,2.4-2.4s-1.1-2.4-2.4-2.4H8.1c-1.3,0-2.4,1.1-2.4,2.4S6.8,52.4,8.1,52.4z"/>
<path class="st0" d="M8.1,76.3h83.8c1.3,0,2.4-1.1,2.4-2.4s-1.1-2.4-2.4-2.4H8.1c-1.3,0-2.4,1.1-2.4,2.4S6.8,76.3,8.1,76.3z"/>
<path class="st0" d="M8.1,28.5h83.8c1.3,0,2.4-1.1,2.4-2.4s-1.1-2.4-2.4-2.4H8.1c-1.3,0-2.4,1.1-2.4,2.4S6.8,28.5,8.1,28.5z"/>
</svg>
